<?xml version="1.0" encoding="utf-8"?>
<!-- Generator: Adobe Illustrator 17.1.0, SVG Export Plug-In . SVG Version: 6.00 Build 0)  -->
<!DOCTYPE svg PUBLIC "-//W3C//DTD SVG 1.1//EN" "http://www.w3.org/Graphics/SVG/1.1/DTD/svg11.dtd">
<svg version="1.1" id="Layer_1" xmlns="http://www.w3.org/2000/svg" xmlns:xlink="http://www.w3.org/1999/xlink" x="0px" y="0px"
	 viewBox="0 0 841.9 595.3" enable-background="new 0 0 841.9 595.3" xml:space="preserve">
<g>
	<path fill="#E76F00" d="M492.8,381.9h-1.1v-0.6h3v0.6h-1.1v3.1h-0.8V381.9z M498.7,382L498.7,382l-1.1,2.9h-0.5L496,382h0v2.9h-0.7
		v-3.7h1.1l1,2.6l1-2.6h1.1v3.7h-0.7L498.7,382L498.7,382z"/>
	<path fill="#5382A1" d="M394.4,306.5c0,0-7.7,4.4,5.4,6c15.9,1.8,24,1.6,41.5-1.8c0,0,4.6,2.9,11,5.4
		C413.1,332.9,363.6,315.1,394.4,306.5"/>
	<path fill="#5382A1" d="M389.6,284.6c0,0-8.6,6.4,4.5,7.7c16.9,1.7,30.3,1.9,53.5-2.6c0,0,3.2,3.2,8.2,5
		C408.4,308.6,355.7,295.9,389.6,284.6"/>
	<path fill="#E76F00" d="M429.9,247.4c9.7,11.1-2.5,21.1-2.5,21.1s24.5-12.7,13.3-28.5c-10.5-14.8-18.6-22.1,25.1-47.5
		C465.8,192.6,397.2,209.7,429.9,247.4"/>
	<path fill="#5382A1" d="M481.8,322.7c0,0,5.7,4.7-6.2,8.3c-22.6,6.9-94.2,8.9-114,0.3c-7.1-3.1,6.3-7.4,10.5-8.3
		c4.4-1,6.9-0.8,6.9-0.8c-7.9-5.6-51.4,11-22,15.7C436.8,350.9,502.5,332.1,481.8,322.7"/>
	<path fill="#5382A1" d="M398,261.9c0,0-36.4,8.6-12.9,11.8c9.9,1.3,29.7,1,48.1-0.5c15.1-1.3,30.2-4,30.2-4s-5.3,2.3-9.2,4.9
		c-37,9.7-108.3,5.2-87.8-4.7C383.9,260.9,398,261.9,398,261.9"/>
	<path fill="#5382A1" d="M463.3,298.4c37.6-19.5,20.2-38.3,8.1-35.8c-3,0.6-4.3,1.2-4.3,1.2s1.1-1.7,3.2-2.5
		c24-8.4,42.4,24.9-7.7,38.1C462.6,299.4,463.1,298.8,463.3,298.4"/>
	<path fill="#E76F00" d="M440.7,151.7c0,0,20.8,20.8-19.7,52.8c-32.5,25.7-7.4,40.3,0,57c-19-17.1-32.9-32.2-23.6-46.2
		C411.1,194.7,449.1,184.7,440.7,151.7"/>
	<path fill="#5382A1" d="M401.7,351.3c36.1,2.3,91.4-1.3,92.7-18.3c0,0-2.5,6.5-29.8,11.6c-30.8,5.8-68.7,5.1-91.2,1.4
		C373.4,345.9,378,349.8,401.7,351.3"/>
	<path fill="#E76F00" d="M395.8,416.5c-3.4,3-7,4.6-10.2,4.6c-4.6,0-7.1-2.8-7.1-7.2c0-4.8,2.7-8.3,13.4-8.3h4V416.5 M405.2,427.1
		v-32.8c0-8.4-4.8-13.9-16.3-13.9c-6.7,0-12.6,1.7-17.4,3.8l1.4,5.8c3.8-1.4,8.6-2.7,13.4-2.7c6.6,0,9.5,2.7,9.5,8.2v4.1h-3.3
		c-16.1,0-23.4,6.3-23.4,15.6c0,8.1,4.8,12.7,13.8,12.7c5.8,0,10.1-2.4,14.2-5.9l0.7,5L405.2,427.1L405.2,427.1z"/>
	<path fill="#E76F00" d="M436.5,427.1h-11.7l-14.1-45.8H421l8.7,28.2l1.9,8.5c4.4-12.2,7.6-24.7,9.1-36.6h9.9
		C448,396.3,443.2,412.9,436.5,427.1"/>
	<path fill="#E76F00" d="M481.4,416.5c-3.4,3-7,4.6-10.2,4.6c-4.6,0-7.1-2.8-7.1-7.2c0-4.8,2.7-8.3,13.4-8.3h4V416.5 M490.8,427.1
		v-32.8c0-8.4-4.8-13.9-16.3-13.9c-6.7,0-12.6,1.7-17.4,3.8l1.4,5.8c3.8-1.4,8.7-2.7,13.4-2.7c6.6,0,9.5,2.7,9.5,8.2v4.1h-3.3
		c-16.1,0-23.4,6.3-23.4,15.6c0,8.1,4.8,12.7,13.8,12.7c5.8,0,10.1-2.4,14.2-5.9l0.7,5L490.8,427.1L490.8,427.1z"/>
	<path fill="#E76F00" d="M358.8,434.8c-2.7,3.9-7,7-11.7,8.7l-4.6-5.5c3.6-1.8,6.7-4.8,8.1-7.6c1.2-2.5,1.8-5.7,1.8-13.3v-52.3h10
		v51.6C362.3,426.7,361.5,430.8,358.8,434.8"/>
</g>
</svg>
